<?xml version="1.0" encoding="UTF-8" standalone="no"?>
<!DOCTYPE svg PUBLIC "-//W3C//DTD SVG 1.1//EN"
 "http://www.w3.org/Graphics/SVG/1.1/DTD/svg11.dtd">
<!-- Generated by graphviz version 2.36.0 (20140111.2315)
 -->
<!-- Title: G Pages: 1 -->
<svg width="935pt" height="317pt"
 viewBox="0.00 0.00 935.20 317.20" xmlns="http://www.w3.org/2000/svg" xmlns:xlink="http://www.w3.org/1999/xlink">
<g id="graph0" class="graph" transform="scale(1 1) rotate(0) translate(21.6 295.6)">
<title>G</title>
<polygon fill="#111111" stroke="none" points="-21.6,21.6 -21.6,-295.6 913.6,-295.6 913.6,21.6 -21.6,21.6"/>
<!-- cache/expiration&#45;strategy.ts -->
<g id="node1" class="node"><title>cache/expiration&#45;strategy.ts</title>
<path fill="none" stroke="#c6c5fe" d="M546.333,-274.5C546.333,-274.5 373.667,-274.5 373.667,-274.5 369.833,-274.5 366,-270.667 366,-266.833 366,-266.833 366,-259.167 366,-259.167 366,-255.333 369.833,-251.5 373.667,-251.5 373.667,-251.5 546.333,-251.5 546.333,-251.5 550.167,-251.5 554,-255.333 554,-259.167 554,-259.167 554,-266.833 554,-266.833 554,-270.667 550.167,-274.5 546.333,-274.5"/>
<text text-anchor="middle" x="460" y="-259.3" font-family="Arial" font-size="14.00" fill="#c6c5fe">cache/expiration&#45;strategy.ts</text>
</g>
<!-- cache/memory&#45;storage.ts -->
<g id="node2" class="node"><title>cache/memory&#45;storage.ts</title>
<path fill="none" stroke="#cfffac" d="M756.333,-254.5C756.333,-254.5 597.667,-254.5 597.667,-254.5 593.833,-254.5 590,-250.667 590,-246.833 590,-246.833 590,-239.167 590,-239.167 590,-235.333 593.833,-231.5 597.667,-231.5 597.667,-231.5 756.333,-231.5 756.333,-231.5 760.167,-231.5 764,-235.333 764,-239.167 764,-239.167 764,-246.833 764,-246.833 764,-250.667 760.167,-254.5 756.333,-254.5"/>
<text text-anchor="middle" x="677" y="-239.3" font-family="Arial" font-size="14.00" fill="#cfffac">cache/memory&#45;storage.ts</text>
</g>
<!-- cache/expiration&#45;strategy.ts&#45;&gt;cache/memory&#45;storage.ts -->
<g id="edge1" class="edge"><title>cache/expiration&#45;strategy.ts&#45;&gt;cache/memory&#45;storage.ts</title>
<path fill="none" stroke="#757575" d="M554.052,-254.344C562.617,-253.547 571.306,-252.739 579.897,-251.94"/>
<polygon fill="#757575" stroke="#757575" points="580.291,-255.418 589.924,-251.007 579.643,-248.448 580.291,-255.418"/>
</g>
<!-- constants.ts -->
<g id="node3" class="node"><title>constants.ts</title>
<path fill="none" stroke="#cfffac" d="M883.833,-87.5C883.833,-87.5 808.167,-87.5 808.167,-87.5 804.333,-87.5 800.5,-83.6667 800.5,-79.8333 800.5,-79.8333 800.5,-72.1667 800.5,-72.1667 800.5,-68.3333 804.333,-64.5 808.167,-64.5 808.167,-64.5 883.833,-64.5 883.833,-64.5 887.667,-64.5 891.5,-68.3333 891.5,-72.1667 891.5,-72.1667 891.5,-79.8333 891.5,-79.8333 891.5,-83.6667 887.667,-87.5 883.833,-87.5"/>
<text text-anchor="middle" x="846" y="-72.3" font-family="Arial" font-size="14.00" fill="#cfffac">constants.ts</text>
</g>
<!-- dependencies.ts -->
<g id="node4" class="node"><title>dependencies.ts</title>
<path fill="none" stroke="#ff6c60" d="M511.333,-184.5C511.333,-184.5 408.667,-184.5 408.667,-184.5 404.833,-184.5 401,-180.667 401,-176.833 401,-176.833 401,-169.167 401,-169.167 401,-165.333 404.833,-161.5 408.667,-161.5 408.667,-161.5 511.333,-161.5 511.333,-161.5 515.167,-161.5 519,-165.333 519,-169.167 519,-169.167 519,-176.833 519,-176.833 519,-180.667 515.167,-184.5 511.333,-184.5"/>
<text text-anchor="middle" x="460" y="-169.3" font-family="Arial" font-size="14.00" fill="#ff6c60">dependencies.ts</text>
</g>
<!-- logger.ts -->
<g id="node5" class="node"><title>logger.ts</title>
<path fill="none" stroke="#c6c5fe" d="M704.333,-127.5C704.333,-127.5 649.667,-127.5 649.667,-127.5 645.833,-127.5 642,-123.667 642,-119.833 642,-119.833 642,-112.167 642,-112.167 642,-108.333 645.833,-104.5 649.667,-104.5 649.667,-104.5 704.333,-104.5 704.333,-104.5 708.167,-104.5 712,-108.333 712,-112.167 712,-112.167 712,-119.833 712,-119.833 712,-123.667 708.167,-127.5 704.333,-127.5"/>
<text text-anchor="middle" x="677" y="-112.3" font-family="Arial" font-size="14.00" fill="#c6c5fe">logger.ts</text>
</g>
<!-- dependencies.ts&#45;&gt;logger.ts -->
<g id="edge2" class="edge"><title>dependencies.ts&#45;&gt;logger.ts</title>
<path fill="none" stroke="#757575" d="M503.477,-161.739C540.661,-151.88 594.472,-137.615 632.079,-127.644"/>
<polygon fill="#757575" stroke="#757575" points="632.98,-131.026 641.749,-125.081 631.186,-124.26 632.98,-131.026"/>
</g>
<!-- options.ts -->
<g id="node6" class="node"><title>options.ts</title>
<path fill="none" stroke="#ff6c60" d="M322.333,-244.5C322.333,-244.5 261.667,-244.5 261.667,-244.5 257.833,-244.5 254,-240.667 254,-236.833 254,-236.833 254,-229.167 254,-229.167 254,-225.333 257.833,-221.5 261.667,-221.5 261.667,-221.5 322.333,-221.5 322.333,-221.5 326.167,-221.5 330,-225.333 330,-229.167 330,-229.167 330,-236.833 330,-236.833 330,-240.667 326.167,-244.5 322.333,-244.5"/>
<text text-anchor="middle" x="292" y="-229.3" font-family="Arial" font-size="14.00" fill="#ff6c60">options.ts</text>
</g>
<!-- dependencies.ts&#45;&gt;options.ts -->
<g id="edge3" class="edge"><title>dependencies.ts&#45;&gt;options.ts</title>
<path fill="none" stroke="#757575" d="M439.905,-184.401C415.735,-195.408 373.266,-211.311 340.187,-222.102"/>
<polygon fill="#757575" stroke="#757575" points="338.714,-218.898 330.254,-225.275 340.844,-225.566 338.714,-218.898"/>
</g>
<!-- logger.ts&#45;&gt;constants.ts -->
<g id="edge8" class="edge"><title>logger.ts&#45;&gt;constants.ts</title>
<path fill="none" stroke="#757575" d="M712.198,-107.809C734.691,-102.421 764.62,-95.2527 790.371,-89.0847"/>
<polygon fill="#757575" stroke="#757575" points="791.469,-92.421 800.378,-86.6879 789.838,-85.6135 791.469,-92.421"/>
</g>
<!-- options.ts&#45;&gt;cache/expiration&#45;strategy.ts -->
<g id="edge9" class="edge"><title>options.ts&#45;&gt;cache/expiration&#45;strategy.ts</title>
<path fill="none" stroke="#757575" d="M330.254,-239.733C346.859,-242.734 367.018,-246.377 386.407,-249.881"/>
<polygon fill="#757575" stroke="#757575" points="385.99,-253.362 396.453,-251.696 387.235,-246.474 385.99,-253.362"/>
</g>
<!-- options.ts&#45;&gt;cache/memory&#45;storage.ts -->
<g id="edge10" class="edge"><title>options.ts&#45;&gt;cache/memory&#45;storage.ts</title>
<path fill="none" stroke="#757575" d="M330.072,-233.968C387.232,-235.46 498.744,-238.372 579.75,-240.487"/>
<polygon fill="#757575" stroke="#757575" points="579.882,-243.991 589.969,-240.754 580.064,-236.994 579.882,-243.991"/>
</g>
<!-- options.ts&#45;&gt;dependencies.ts -->
<g id="edge11" class="edge"><title>options.ts&#45;&gt;dependencies.ts</title>
<path fill="none" stroke="#757575" d="M312.042,-221.623C333.559,-211.82 369.626,-198.122 400.643,-187.614"/>
<polygon fill="#757575" stroke="#757575" points="402.132,-190.807 410.512,-184.324 399.918,-184.167 402.132,-190.807"/>
</g>
<!-- extension.ts -->
<g id="node7" class="node"><title>extension.ts</title>
<path fill="none" stroke="#c6c5fe" d="M83.8333,-96.5C83.8333,-96.5 8.16667,-96.5 8.16667,-96.5 4.33333,-96.5 0.5,-92.6667 0.5,-88.8333 0.5,-88.8333 0.5,-81.1667 0.5,-81.1667 0.5,-77.3333 4.33333,-73.5 8.16667,-73.5 8.16667,-73.5 83.8333,-73.5 83.8333,-73.5 87.6667,-73.5 91.5,-77.3333 91.5,-81.1667 91.5,-81.1667 91.5,-88.8333 91.5,-88.8333 91.5,-92.6667 87.6667,-96.5 83.8333,-96.5"/>
<text text-anchor="middle" x="46" y="-81.3" font-family="Arial" font-size="14.00" fill="#c6c5fe">extension.ts</text>
</g>
<!-- extension.ts&#45;&gt;constants.ts -->
<g id="edge4" class="edge"><title>extension.ts&#45;&gt;constants.ts</title>
<path fill="none" stroke="#757575" d="M65.5223,-73.7127C105.284,-50.591 202.406,-0 291,-0 291,-0 291,-0 461,-0 586.5,-0 730.757,-39.5473 801.404,-61.5863"/>
<polygon fill="#757575" stroke="#757575" points="800.693,-65.0319 811.283,-64.7041 802.8,-58.3565 800.693,-65.0319"/>
</g>
<!-- extension.ts&#45;&gt;logger.ts -->
<g id="edge5" class="edge"><title>extension.ts&#45;&gt;logger.ts</title>
<path fill="none" stroke="#757575" d="M91.7319,-87.2046C207.54,-92.9121 516.153,-108.122 631.596,-113.812"/>
<polygon fill="#757575" stroke="#757575" points="631.671,-117.319 641.831,-114.316 632.016,-110.328 631.671,-117.319"/>
</g>
<!-- extension.ts&#45;&gt;options.ts -->
<g id="edge6" class="edge"><title>extension.ts&#45;&gt;options.ts</title>
<path fill="none" stroke="#757575" d="M58.6289,-96.3419C73.7498,-110.704 101.384,-135.664 128,-153 168.63,-179.463 219.28,-203.007 253.242,-217.586"/>
<polygon fill="#757575" stroke="#757575" points="252.213,-220.952 262.786,-221.636 254.947,-214.508 252.213,-220.952"/>
</g>
<!-- wakatime.ts -->
<g id="node8" class="node"><title>wakatime.ts</title>
<path fill="none" stroke="#c6c5fe" d="M210.333,-144.5C210.333,-144.5 135.667,-144.5 135.667,-144.5 131.833,-144.5 128,-140.667 128,-136.833 128,-136.833 128,-129.167 128,-129.167 128,-125.333 131.833,-121.5 135.667,-121.5 135.667,-121.5 210.333,-121.5 210.333,-121.5 214.167,-121.5 218,-125.333 218,-129.167 218,-129.167 218,-136.833 218,-136.833 218,-140.667 214.167,-144.5 210.333,-144.5"/>
<text text-anchor="middle" x="173" y="-129.3" font-family="Arial" font-size="14.00" fill="#c6c5fe">wakatime.ts</text>
</g>
<!-- extension.ts&#45;&gt;wakatime.ts -->
<g id="edge7" class="edge"><title>extension.ts&#45;&gt;wakatime.ts</title>
<path fill="none" stroke="#757575" d="M76.3069,-96.2539C93.1891,-102.737 114.623,-110.967 132.924,-117.995"/>
<polygon fill="#757575" stroke="#757575" points="131.853,-121.333 142.444,-121.65 134.363,-114.798 131.853,-121.333"/>
</g>
<!-- wakatime.ts&#45;&gt;constants.ts -->
<g id="edge12" class="edge"><title>wakatime.ts&#45;&gt;constants.ts</title>
<path fill="none" stroke="#757575" d="M218.005,-128.515C229.702,-127.346 242.327,-126.105 254,-125 403.26,-110.874 440.573,-107.237 590,-95 658.92,-89.3559 738.379,-83.5458 790.035,-79.8614"/>
<polygon fill="#757575" stroke="#757575" points="790.576,-83.3318 800.303,-79.131 790.079,-76.3495 790.576,-83.3318"/>
</g>
<!-- wakatime.ts&#45;&gt;dependencies.ts -->
<g id="edge13" class="edge"><title>wakatime.ts&#45;&gt;dependencies.ts</title>
<path fill="none" stroke="#757575" d="M218.219,-139.206C264.34,-145.679 337.243,-155.911 390.757,-163.422"/>
<polygon fill="#757575" stroke="#757575" points="390.46,-166.915 400.849,-164.839 391.433,-159.983 390.46,-166.915"/>
</g>
<!-- wakatime.ts&#45;&gt;logger.ts -->
<g id="edge15" class="edge"><title>wakatime.ts&#45;&gt;logger.ts</title>
<path fill="none" stroke="#757575" d="M218.109,-131.506C313.12,-128.289 536.203,-120.734 631.533,-117.506"/>
<polygon fill="#757575" stroke="#757575" points="631.827,-120.998 641.702,-117.161 631.59,-114.002 631.827,-120.998"/>
</g>
<!-- wakatime.ts&#45;&gt;options.ts -->
<g id="edge16" class="edge"><title>wakatime.ts&#45;&gt;options.ts</title>
<path fill="none" stroke="#757575" d="M183.796,-144.42C198.125,-160.695 226.136,-190.92 254,-212 256.01,-213.521 258.142,-215.009 260.327,-216.447"/>
<polygon fill="#757575" stroke="#757575" points="258.523,-219.447 268.875,-221.702 262.189,-213.483 258.523,-219.447"/>
</g>
<!-- libs.ts -->
<g id="node9" class="node"><title>libs.ts</title>
<path fill="none" stroke="#cfffac" d="M311.333,-203.5C311.333,-203.5 272.667,-203.5 272.667,-203.5 268.833,-203.5 265,-199.667 265,-195.833 265,-195.833 265,-188.167 265,-188.167 265,-184.333 268.833,-180.5 272.667,-180.5 272.667,-180.5 311.333,-180.5 311.333,-180.5 315.167,-180.5 319,-184.333 319,-188.167 319,-188.167 319,-195.833 319,-195.833 319,-199.667 315.167,-203.5 311.333,-203.5"/>
<text text-anchor="middle" x="292" y="-188.3" font-family="Arial" font-size="14.00" fill="#cfffac">libs.ts</text>
</g>
<!-- wakatime.ts&#45;&gt;libs.ts -->
<g id="edge14" class="edge"><title>wakatime.ts&#45;&gt;libs.ts</title>
<path fill="none" stroke="#757575" d="M196.559,-144.376C214.444,-153.395 239.648,-166.104 259.52,-176.126"/>
<polygon fill="#757575" stroke="#757575" points="258.006,-179.282 268.51,-180.659 261.157,-173.031 258.006,-179.282"/>
</g>
</g>
</svg>
