<?xml version="1.0" encoding="UTF-8" standalone="no"?>
<!DOCTYPE svg PUBLIC "-//W3C//DTD SVG 1.1//EN"
 "http://www.w3.org/Graphics/SVG/1.1/DTD/svg11.dtd">
<!-- Generated by graphviz version 2.40.1 (20161225.0304)
 -->
<!-- Title: %0 Pages: 1 -->
<svg width="112pt" height="27pt"
 viewBox="0.00 0.00 112.10 27.20" xmlns="http://www.w3.org/2000/svg" xmlns:xlink="http://www.w3.org/1999/xlink">
<g id="graph0" class="graph" transform="scale(1 1) rotate(0) translate(4 23.2)">
<title>%0</title>
<polygon fill="#ffffff" stroke="transparent" points="-4,4 -4,-23.2 108.0991,-23.2 108.0991,4 -4,4"/>
<!-- undefined@undefined -->
<g id="node1" class="node">
<title>undefined@undefined</title>
<path fill="none" stroke="#000000" d="M97.6813,-19.3011C97.6813,-19.3011 6.4178,-19.3011 6.4178,-19.3011 3.1841,-19.3011 -.0496,-16.0674 -.0496,-12.8337 -.0496,-12.8337 -.0496,-6.3663 -.0496,-6.3663 -.0496,-3.1326 3.1841,.1011 6.4178,.1011 6.4178,.1011 97.6813,.1011 97.6813,.1011 100.915,.1011 104.1487,-3.1326 104.1487,-6.3663 104.1487,-6.3663 104.1487,-12.8337 104.1487,-12.8337 104.1487,-16.0674 100.915,-19.3011 97.6813,-19.3011"/>
<text text-anchor="middle" x="52.0495" y="-6.3" font-family="Roboto Condensed, sans-serif" font-size="11.00" fill="#000000">undefined@undefined</text>
</g>
</g>
</svg>
